<!DOCTYPE svg PUBLIC "-//W3C//DTD SVG 1.1//EN" "http://www.w3.org/Graphics/SVG/1.1/DTD/svg11.dtd">

<!-- Uploaded to: SVG Repo, www.svgrepo.com, Transformed by: SVG Repo Mixer Tools -->
<svg width="800px" height="800px" viewBox="0 -3 123 123" version="1.1" xmlns="http://www.w3.org/2000/svg" xmlns:xlink="http://www.w3.org/1999/xlink" fill="#000000">

<g id="SVGRepo_bgCarrier" stroke-width="0"/>

<g id="SVGRepo_tracerCarrier" stroke-linecap="round" stroke-linejoin="round"/>

<g id="SVGRepo_iconCarrier"> <title/> <desc/> <defs/> <g fill="none" fill-rule="evenodd" id="Page-1" stroke="none" stroke-width="1"> <g fill-rule="nonzero" id="user"> <path d="M61.3,65.6 C79.3,65.6 93.9,51 93.9,33 C93.9,15 79.3,0.5 61.3,0.5 C43.3,0.5 28.7,15.1 28.7,33 C28.7,50.9 43.3,65.6 61.3,65.6 Z M61.3,9 C74.5,9 85.3,19.8 85.3,33 C85.3,46.2 74.5,57 61.3,57 C48.1,57 37.3,46.2 37.3,33 C37.3,19.8 48.1,9 61.3,9 Z" fill="#a4a21a" id="Shape"/> <path d="M4.9,116.5 L118.1,116.5 C120.5,116.5 122.4,114.6 122.4,112.2 C122.4,89.7 104.1,71.3 81.5,71.3 L41.5,71.3 C19,71.3 0.6,89.6 0.6,112.2 C0.6,114.6 2.5,116.5 4.9,116.5 Z M41.5,79.9 L81.5,79.9 C97.9,79.9 111.4,92.1 113.5,107.9 L9.5,107.9 C11.6,92.2 25.1,79.9 41.5,79.9 Z" fill="#a4a21a" id="Shape"/> </g> </g> </g>

</svg>